<?xml version="1.0" standalone="no"?>
<!DOCTYPE svg PUBLIC "-//W3C//DTD SVG 20010904//EN"
 "http://www.w3.org/TR/2001/REC-SVG-20010904/DTD/svg10.dtd">
<svg version="1.0" xmlns="http://www.w3.org/2000/svg"
 width="128.000000pt" height="128.000000pt" viewBox="0 0 128.000000 128.000000"
 preserveAspectRatio="xMidYMid meet">
<metadata>
Created by potrace 1.14, written by Peter Selinger 2001-2017
</metadata>
<g transform="translate(0.000000,128.000000) scale(0.100000,-0.100000)"
fill="#000000" stroke="none">
<path d="M550 1127 c-3 -3 -21 -8 -41 -11 -72 -11 -139 -51 -139 -82 0 -25 19
-23 47 5 58 58 285 75 411 31 39 -15 42 -28 5 -26 -19 1 -28 -4 -28 -14 0 -12
13 -15 55 -15 l55 0 3 49 c3 52 -12 82 -28 56 -6 -8 -8 -20 -6 -26 3 -8 -17
-4 -52 8 -54 19 -269 38 -282 25z"/>
<path d="M214 942 c-17 -2 -42 -14 -54 -27 -23 -24 -23 -29 -23 -268 0 -133 3
-254 6 -268 11 -44 43 -52 214 -53 174 -2 210 4 236 35 15 19 17 46 17 228 l0
207 -74 73 -74 74 -109 1 c-59 0 -122 0 -139 -2z m226 -73 c0 -56 42 -99 98
-99 l39 0 -1 -191 c-1 -171 -3 -192 -19 -204 -13 -9 -63 -13 -186 -13 -93 0
-174 4 -180 7 -22 14 -27 67 -25 284 1 190 3 220 18 236 15 17 33 19 137 20
l119 0 0 -40z m74 -25 c21 -20 25 -29 15 -35 -16 -10 -56 23 -56 46 0 21 8 19
41 -11z"/>
<path d="M240 795 c-15 -18 -2 -25 46 -25 40 0 64 13 50 28 -12 11 -86 10 -96
-3z"/>
<path d="M252 699 c-30 -11 -19 -29 19 -29 18 0 29 5 29 14 0 19 -20 25 -48
15z"/>
<path d="M351 702 c-6 -2 -11 -10 -11 -18 0 -11 18 -14 79 -14 72 0 104 10 87
27 -6 6 -139 10 -155 5z"/>
<path d="M235 591 c-10 -17 27 -27 91 -25 63 1 88 9 79 25 -8 12 -162 12 -170
0z"/>
<path d="M445 591 c-11 -19 3 -28 35 -23 17 2 29 9 27 16 -5 15 -53 20 -62 7z"/>
<path d="M242 483 c3 -14 13 -18 46 -17 23 1 45 4 48 7 14 14 -11 27 -52 27
-38 0 -45 -3 -42 -17z"/>
<path d="M375 489 c-11 -17 3 -23 59 -25 57 -2 83 7 72 25 -9 14 -123 14 -131
0z"/>
<path d="M740 937 c-58 -15 -60 -26 -60 -305 l0 -253 25 -24 c27 -28 19 -27
238 -27 160 -1 193 7 203 49 3 12 7 111 8 220 l1 198 -71 74 -71 74 -121 1
c-67 0 -135 -2 -152 -7z m245 -48 c4 -11 5 -23 2 -26 -3 -2 -1 -18 5 -34 12
-34 53 -59 98 -59 22 0 30 -5 31 -17 0 -10 1 -96 1 -191 1 -157 -1 -174 -18
-186 -26 -19 -345 -20 -371 -1 -16 12 -18 35 -19 256 0 300 -12 279 150 279
107 0 115 -1 121 -21z m84 -77 c-26 -4 -49 21 -49 52 0 17 5 15 36 -15 34 -33
34 -34 13 -37z"/>
<path d="M835 641 c-7 -12 12 -24 25 -16 11 7 4 25 -10 25 -5 0 -11 -4 -15 -9z"/>
<path d="M900 635 c0 -10 7 -15 18 -13 21 4 19 22 -2 26 -10 2 -16 -3 -16 -13z"/>
<path d="M970 635 c0 -8 7 -15 15 -15 8 0 15 7 15 15 0 8 -7 15 -15 15 -8 0
-15 -7 -15 -15z"/>
<path d="M374 246 c-3 -7 -4 -33 -2 -57 2 -31 7 -44 18 -44 8 0 16 6 16 13 1
6 2 16 3 21 0 5 13 3 29 -4 68 -34 234 -44 347 -20 95 20 157 68 127 97 -11
11 -17 8 -33 -14 -14 -19 -39 -33 -76 -44 -102 -30 -317 -18 -369 20 -17 13
-16 13 8 11 31 -4 53 9 44 24 -11 16 -105 14 -112 -3z"/>
</g>
</svg>
